<svg xmlns="http://www.w3.org/2000/svg" viewBox="0 0 1200 630">
  <rect width="1200" height="630" fill="#0B1D3A"/>
  <g opacity="0.9" transform="translate(120,95) scale(1.7)">
    <path d="M38,208 C38,120 38,36 100,36 C162,36 162,120 162,208" stroke="#F7F4EF" stroke-width="13" stroke-linecap="round" fill="none"/>
    <path d="M100,206 C82,206 60,197 46,180 C64,189 82,193 100,195 Z" fill="#8DA88F"/>
    <path d="M100,206 C118,206 140,197 154,180 C136,189 118,193 100,195 Z" fill="#C8C2B1"/>
    <circle cx="100" cy="118" r="10" fill="#D4AF37"/>
    <path d="M100,130 C114,144 114,166 100,184 C86,166 86,144 100,130 Z" fill="#D4AF37"/>
  </g>
  <text x="560" y="290" font-family="Georgia, 'Times New Roman', serif" font-size="30" fill="#D4AF37" letter-spacing="4">מרכז קהילתי</text>
  <text x="560" y="360" font-family="Georgia, 'Times New Roman', serif" font-size="64" fill="#F7F4EF">עזרת ישראל</text>
  <text x="560" y="410" font-family="Georgia, 'Times New Roman', serif" font-size="26" fill="#C8C2B1">חיפה · בית הארחה · מרפאות שיניים · כוללים · ישיבה</text>
</svg>
